# xmcd
#
# Track frame offsets:
#  150
#  20250
#  35919
#  51314
#  69002
#
# Disc length: 1136 seconds
#
# Revision: 0
# Processed by: cddbd v1.5.1PL2 Copyright (c) Steve Scherf et al.
# Submitted via: Collectorz.com_Music_Collector 6.9
#
DISCID=3b046e05
DTITLE=Troy Cassar Daley - Brighter Day Bonus Disc
DYEAR=2005
DGENRE=Country
TTITLE0=Bird on a Wire with JImmy Barnes and Bellas
TTITLE1=Someday
TTITLE2=Long Black Veil
TTITLE3=Till I Gain Control Again - LIVE
TTITLE4=Make The Most (Of Every Day With You)
EXTD=
EXTT0=
EXTT1=
EXTT2=
EXTT3=
EXTT4=
PLAYORDER=
